PathFileType	4	(X/Y/Z)	pose2sim_0-814.trc
DataRate	CameraRate	NumFrames	NumMarkers	Units	OrigDataRate	OrigDataStartFrame	OrigNumFrames
50	50	7	22	m	50	509	815
Frame#	Time	Hip			RHip			RKnee			RAnkle			RBigToe			RSmallToe			RHeel			LHip			LKnee			LAnkle			LBigToe			LSmallToe			LHeel			Neck			Head			Nose			RShoulder			RElbow			RWrist			LShoulder			LElbow			LWrist			
		X1	Y1	Z1	X2	Y2	Z2	X3	Y3	Z3	X4	Y4	Z4	X5	Y5	Z5	X6	Y6	Z6	X7	Y7	Z7	X8	Y8	Z8	X9	Y9	Z9	X10	Y10	Z10	X11	Y11	Z11	X12	Y12	Z12	X13	Y13	Z13	X14	Y14	Z14	X15	Y15	Z15	X16	Y16	Z16	X17	Y17	Z17	X18	Y18	Z18	X19	Y19	Z19	X20	Y20	Z20	X21	Y21	Z21	X22	Y22	Z22	
509	10.18	0.14769002682372595	0.9675589647601023	-0.114144465028605	0.030208918541776916	0.959762459418586	-0.1244936702585033	-0.005350516368773381	0.5260724371744506	-0.14531628202541755	-0.04441259633797425	0.0897034310074356	-0.16209702702565854	-0.07172308526583886	0.03406669551283395	0.013769177689451817	-0.11615985753847491	0.03806484081093869	-0.04495374119184653	-0.0325811806266588	0.04954125917207714	-0.20409801654410306	0.26881262582555193	0.9594590168291294	-0.11361440912371477	0.2959116166167661	0.5248913014868126	-0.1275303914325238	0.3262171723802788	0.09192272140519389	-0.14949802200546586	0.3507439429728938	0.03317705464829277	0.030076070119238813	0.3979474438081599	0.03921762465231676	-0.024575277411547997	0.3162759253044246	0.048751096264957765	-0.18766784226664324	0.14999755202177267	1.5580439716857375	0.009182273412883479	0.14991936758518962	1.7528554671108725	0.13397357541880514	0.13959098858998847	1.60983959240753	0.1948177422575539	-0.029060174501620878	1.4793155811147114	-0.0359801969402195	-0.13158405117184768	1.2160115389287443	0.06589156650232557	-0.07614262254891414	1.4235503063555082	0.22145197316043214	0.3330376422459055	1.4665125306911386	-0.05771732821289089	0.4559579354350433	1.2021627673427642	0.023930325536352277	0.3986331174960724	1.399287250102063	0.1381122964789318
510	10.2	0.14455396241537782	0.9670070579314556	-0.11903106809083486	0.027316557540878417	0.9596429827173244	-0.12992429189938312	-0.007092830274777868	0.5243915711164686	-0.14891405429504576	-0.04101600291435435	0.0903895535868004	-0.16637987224331102	-0.07952518322257805	0.03907786600661846	0.002502654203000994	-0.12033218608621392	0.04043930894748087	-0.051289086572512625	-0.031169580482927946	0.052966561856020784	-0.2014657627573264	0.2666311409629932	0.9589566792056089	-0.11596888991050955	0.2982310714499985	0.5238249115750105	-0.12670474030703033	0.3254907383116505	0.09056513342743369	-0.1490275753029752	0.35152026162199357	0.038149505620462376	0.029048829680399024	0.40090365799643446	0.040735463917807496	-0.025213077074983246	0.3142592144065446	0.04481983162304255	-0.18463274149088732	0.15242309189550296	1.552895453758919	0.003056048456576704	0.15387761721583681	1.7507855392028282	0.13586978807506325	0.14524372554116569	1.6096379570726156	0.19220139246938092	-0.029914729165263207	1.47947195603314	-0.04519741485859228	-0.1320633232384123	1.2182152054213224	0.0660010138362376	-0.07095454170170802	1.4265741229320916	0.21598889880591643	0.33358064676070637	1.4651020336640677	-0.05812711637145795	0.45671487287624424	1.2002254906056624	0.028158552386767167	0.39587043630963287	1.3950920757957497	0.12886059699316493
511	10.22	0.14608431821106857	0.9666175881705555	-0.10884263380660668	0.026350955480736647	0.9621276505508285	-0.11973689629297211	-0.00619842089833107	0.522742159750464	-0.14645905288930658	-0.04249718911104056	0.08904313267647207	-0.1596949674716087	-0.07423138413962752	0.035178715572215614	0.009549793405772972	-0.11658621008587611	0.03779681014490357	-0.04479944857133023	-0.033771043358777945	0.04752051579420716	-0.1983596284079512	0.2663858903876549	0.9600095033292317	-0.1148706054783899	0.29877048645742077	0.5225476451376454	-0.12519869440170234	0.3264394892941775	0.09355684197035205	-0.15185018027372119	0.3553886825115109	0.03703272245261163	0.025396710525766003	0.40241595460928864	0.041389040595895744	-0.03137470993791574	0.3168321308856516	0.04760074475847138	-0.18515594893757015	0.15262370196148417	1.5534454866994956	0.0031454140003965504	0.1523594252064706	1.7491374231866614	0.13868279887723947	0.14517664439892525	1.610511705188183	0.19985612194119462	-0.028074506092950445	1.478564962137392	-0.0426261396935548	-0.13046885504278827	1.219756581174009	0.06730017304171548	-0.06481545113486503	1.431337009808221	0.22097947314364036	0.33017325832828237	1.4646026881258434	-0.05785089615284518	0.4572468002364774	1.2007315797575988	0.023697988418429624	0.40223976006052886	1.3940782857495475	0.10434306423377693
512	10.24	0.1470155235157645	0.9697549066075003	-0.1108230112229388	0.027616609213375356	0.9622880392071643	-0.12259207572901089	-0.006770209144596317	0.5237642578192405	-0.14357406883807916	-0.04431200373748255	0.08573114799108025	-0.1687911470319395	-0.07045466529003572	0.028154839707057438	0.029337990307981558	-0.11562646421764516	0.03068504720176373	-0.031197962968880374	-0.036302597326975834	0.0347220774589154	-0.21127444422549918	0.2673138721890974	0.9604094307965553	-0.10437195289528546	0.2956127405240638	0.5239234447251344	-0.12928545916074877	0.32607442581095203	0.08553381622086005	-0.15142189989864158	0.34055291948908173	0.031070539055378255	0.04467771888824605	0.387481918698031	0.030209270470440853	-0.01966794997748327	0.3166523497906377	0.04029388980957265	-0.1876499802204237	0.15436031517562754	1.5546152919965563	0.0005610309407193078	0.1485263196777121	1.7495877944716725	0.1386472961635754	0.14511941191430877	1.605326351161711	0.1814843854817499	-0.030646756544546593	1.4760569429776669	-0.050320564474565614	-0.13123219712974943	1.2173850096020014	0.06624465686213066	-0.06991426966878066	1.4399247973947311	0.18916649552888817	0.33206593686621166	1.4691280336826322	-0.05275392569245971	0.4553069839330656	1.1968079918881338	0.031828418145085274	0.3957449557278247	1.3975575015625474	0.12105897769842648
513	10.26	0.1464157250485143	0.9657097642587619	-0.11210880704840515	0.02868511296553993	0.9580766613939945	-0.12339266173789779	-0.005197773409221573	0.5246645446973023	-0.14476412389370294	-0.04410297367987848	0.08864391451756001	-0.164262949300381	-0.07740647677977522	0.03503633471802258	0.01938263111480369	-0.11772874022726806	0.03696364623680595	-0.03884918157700279	-0.03460172090888999	0.04705609181664186	-0.2017078269346292	0.2643275287583779	0.9575015489730271	-0.10597271565807075	0.2985971391127232	0.5230862790506763	-0.12493909727706778	0.32620238206265395	0.09332434896972328	-0.14651450601126909	0.35317689093482746	0.03599052271421861	0.026782878564106265	0.39657319384773526	0.04079837626123477	-0.01989856240131964	0.3160952368570399	0.0459093226130044	-0.17886674190779991	0.152539387186773	1.554051183673076	0.005668279974976513	0.1505402338932917	1.7492143397876903	0.13871353728545718	0.14475724457293146	1.6091026662619654	0.19494471777321923	-0.02465350805834376	1.4775215431637994	-0.04182620874980681	-0.12878682261952823	1.222024862437038	0.0744976170837997	-0.06875750372705376	1.440150986556878	0.18205822928709223	0.3312270813842515	1.4648201068220827	-0.05091580843744237	0.45581267708188467	1.202342516014756	0.031164354174177362	0.3921961334607109	1.4009692225558377	0.1203263428452045
514	10.28	0.14469251098376432	0.9652870802053956	-0.10836609671405066	0.02918469730293192	0.9575627870824925	-0.11577459808133482	-0.006419640557502485	0.5224213797305601	-0.14070818469490262	-0.04355914868619947	0.08727078531217608	-0.164111369783556	-0.07874855801815789	0.03440079266421415	0.010624067878442282	-0.11967399953183011	0.035792065146994075	-0.0433208788976565	-0.034132306719881274	0.045829746463432415	-0.20147533094040254	0.26759574458728186	0.9543467781125073	-0.10948993222856945	0.2987658858054233	0.5208558235813768	-0.12409355443003961	0.3262121692369613	0.09177499304550778	-0.1506628406488363	0.3531988061542713	0.03350069393668884	0.02545056006780355	0.3994036618358632	0.03789837058519205	-0.03206151085099882	0.31485887766748494	0.04592180716994119	-0.1861403588615025	0.15234581083495782	1.550497905656713	0.0058719530225963355	0.1494579810100528	1.7487570519310394	0.14116968981638237	0.14625654629963333	1.6094187900461172	0.1925318468284155	-0.02520916165768409	1.4771825880104859	-0.04568340366976351	-0.12890005328084728	1.222078134020901	0.07461283229473917	-0.060859267244996205	1.4426296060404509	0.1872900402458648	0.33154082745713576	1.4644716076775819	-0.05733133084055	0.45133352178268804	1.2020947779530031	0.033755563520327395	0.3885169181333869	1.4037152708049716	0.12760150531700665
515	10.3	0.14499896729022405	0.9666767551839643	-0.10434038872181088	0.02773937246794406	0.9590842383845795	-0.1166558334087207	-0.006108176883728491	0.5198810464489686	-0.14516925036938172	-0.04507527755608195	0.08950381417609703	-0.16289619645649225	-0.07362607494146474	0.03515150388609424	0.013484370857705924	-0.11636904705610261	0.03772635619869519	-0.04117835640088945	-0.03187224139847128	0.04904831330324209	-0.20224856074816616	0.26708785103369287	0.9570310554830815	-0.10760422559401711	0.29838951778527273	0.5239602091124245	-0.12310125084297616	0.3233196742635583	0.09254621051647278	-0.14537280474093	0.3594037950223829	0.038539183079279796	0.023550481810392907	0.40257903499015474	0.04298061722268458	-0.031498738812915934	0.31492076230408844	0.04810062794764249	-0.1825987609230148	0.15180380401586416	1.5550719253244951	0.007170187010932521	0.1486222836357939	1.751007325785642	0.13635340863539563	0.14040932125094746	1.6101838903537287	0.19525266268266117	-0.0249817762559635	1.4773848600995618	-0.047700530163934045	-0.1284678808127958	1.2216320994445626	0.06659141429687802	-0.06573848266161358	1.4451175374810008	0.1790275406659844	0.33128140532317574	1.4656509860556777	-0.056980530584847984	0.4524889780971489	1.2039734011924745	0.038900154025981154	0.39530488805857844	1.4068479840908255	0.11218265883326917
